<svg width="67" height="28" viewBox="0 0 67 28" fill="none" xmlns="http://www.w3.org/2000/svg">
<path d="M1.33375 17.814C1.51775 20.16 3.77175 22.368 7.01475 22.368C10.6027 22.368 12.7417 19.953 12.7417 17.17C12.7417 13.973 10.6257 12.179 7.63575 12.179C6.64675 12.179 5.58875 12.501 4.94475 13.099L5.68075 9.81H11.9367V7.073H3.51875L1.74775 14.732C2.06975 14.824 4.34675 15.606 4.64575 15.721C5.12875 15.169 5.93375 14.709 6.94575 14.709C8.32575 14.709 9.59075 15.514 9.59075 17.216C9.59075 18.711 8.44075 19.654 7.01475 19.654C5.42775 19.654 4.36975 18.527 4.30075 17.147L1.33375 17.814ZM14.6495 20.068C14.6495 21.218 15.5925 22.161 16.7425 22.161C17.9155 22.161 18.8585 21.218 18.8585 20.068C18.8585 18.918 17.9155 17.975 16.7425 17.975C15.5925 17.975 14.6495 18.918 14.6495 20.068ZM23.9878 14.548C23.9878 12.984 24.2178 11.65 24.7928 10.753C25.2528 10.017 25.9658 9.534 27.0468 9.534C28.1508 9.534 28.8179 10.017 29.2778 10.753C29.8759 11.65 30.1059 12.984 30.1059 14.548C30.1059 16.112 29.8759 17.446 29.2778 18.343C28.8179 19.079 28.1508 19.562 27.0468 19.562C25.9658 19.562 25.2528 19.079 24.7928 18.343C24.2178 17.446 23.9878 16.112 23.9878 14.548ZM20.8138 14.548C20.8138 16.457 21.1128 18.32 22.1248 19.861C23.1138 21.333 24.7238 22.368 27.0468 22.368C29.3699 22.368 30.9798 21.333 31.9459 19.861C32.9578 18.32 33.2798 16.457 33.2798 14.548C33.2798 12.639 32.9578 10.776 31.9459 9.235C30.9798 7.763 29.3699 6.728 27.0468 6.728C24.7238 6.728 23.1138 7.763 22.1248 9.235C21.1128 10.776 20.8138 12.639 20.8138 14.548Z" fill="#FF5722"/>
<path d="M60.5851 16.32C60.3261 16.571 60.2071 16.934 60.2661 17.29L61.1551 22.21C61.2301 22.627 61.0541 23.049 60.7051 23.29C60.3631 23.54 59.9081 23.57 59.5351 23.37L55.1061 21.06C54.9521 20.978 54.7811 20.934 54.6061 20.929H54.3351C54.2411 20.943 54.1491 20.973 54.0651 21.019L49.6351 23.34C49.4161 23.45 49.1681 23.489 48.9251 23.45C48.3331 23.338 47.9381 22.774 48.0351 22.179L48.9251 17.259C48.9841 16.9 48.8651 16.535 48.6061 16.28L44.9951 12.78C44.6931 12.487 44.5881 12.047 44.7261 11.65C44.8601 11.254 45.2021 10.965 45.6151 10.9L50.5851 10.179C50.9631 10.14 51.2951 9.91 51.4651 9.57L53.6551 5.08C53.7071 4.98 53.7741 4.888 53.8551 4.81L53.9451 4.74C53.9921 4.688 54.0461 4.645 54.1061 4.61L54.2151 4.57L54.3851 4.5H54.8061C55.1821 4.539 55.5131 4.764 55.6861 5.1L57.9051 9.57C58.0651 9.897 58.3761 10.124 58.7351 10.179L63.7051 10.9C64.1251 10.96 64.4761 11.25 64.6151 11.65C64.7461 12.051 64.6331 12.491 64.3251 12.78L60.5851 16.32Z" fill="#FF5722"/>
</svg>
