<svg width="872" height="98" viewBox="0 0 872 98" fill="none" xmlns="http://www.w3.org/2000/svg">
<path d="M282.645 27H278.837V13.084L273.125 27H269.905L264.193 13.196V27H260.497V7.148H265.593L271.557 21.484L277.381 7.148H282.645V27ZM286.01 23.248C286.01 20.784 287.83 19.412 290.126 19.076L293.514 18.572C294.298 18.46 294.55 18.068 294.55 17.592C294.55 16.612 293.794 15.8 292.226 15.8C290.602 15.8 289.706 16.836 289.594 18.04L286.29 17.34C286.514 15.184 288.502 12.804 292.198 12.804C296.566 12.804 298.19 15.268 298.19 18.04V24.816C298.19 25.544 298.274 26.524 298.358 27H294.942C294.858 26.636 294.802 25.88 294.802 25.348C294.102 26.44 292.786 27.392 290.742 27.392C287.802 27.392 286.01 25.404 286.01 23.248ZM291.526 24.62C293.094 24.62 294.55 23.864 294.55 21.428V20.812L291.442 21.288C290.49 21.428 289.734 21.96 289.734 23.024C289.734 23.836 290.322 24.62 291.526 24.62ZM310.344 13.168V16.92C309.924 16.836 309.56 16.808 309.224 16.808C307.32 16.808 305.668 17.732 305.668 20.7V27H301.944V13.224H305.556V15.268C306.396 13.448 308.3 13.112 309.476 13.112C309.784 13.112 310.064 13.14 310.344 13.168ZM326.32 13.224L320.804 19.02L326.432 27H321.868L318.228 21.736L316.688 23.36V27H312.964V6.728H316.688V18.348L321.448 13.224H326.32ZM349.158 11.88L345.686 12.944C345.49 11.852 344.594 10.144 342.074 10.144C340.198 10.144 338.966 11.348 338.966 12.664C338.966 13.756 339.666 14.624 341.122 14.904L343.894 15.436C347.506 16.136 349.438 18.488 349.438 21.288C349.438 24.34 346.89 27.42 342.27 27.42C337.006 27.42 334.682 24.032 334.374 21.204L337.958 20.252C338.126 22.212 339.498 23.976 342.298 23.976C344.37 23.976 345.518 22.94 345.518 21.54C345.518 20.392 344.65 19.496 343.11 19.188L340.338 18.628C337.174 17.984 335.13 15.94 335.13 12.944C335.13 9.416 338.294 6.728 342.046 6.728C346.862 6.728 348.71 9.64 349.158 11.88ZM355.734 27H352.01V13.224H355.566V14.904C356.322 13.56 358.086 12.832 359.598 12.832C361.474 12.832 362.986 13.644 363.686 15.128C364.778 13.448 366.234 12.832 368.054 12.832C370.602 12.832 373.038 14.372 373.038 18.068V27H369.426V18.824C369.426 17.34 368.698 16.22 366.99 16.22C365.394 16.22 364.442 17.452 364.442 18.936V27H360.746V18.824C360.746 17.34 359.99 16.22 358.31 16.22C356.686 16.22 355.734 17.424 355.734 18.936V27ZM380.535 27H376.811V13.224H380.535V27ZM376.363 8.716C376.363 7.428 377.399 6.392 378.659 6.392C379.947 6.392 380.955 7.428 380.955 8.716C380.955 9.948 379.947 10.984 378.659 10.984C377.399 10.984 376.363 9.948 376.363 8.716ZM389.114 9.108V13.224H391.886V16.528H389.114V22.296C389.114 23.5 389.674 23.892 390.738 23.892C391.186 23.892 391.69 23.836 391.886 23.78V26.86C391.55 27 390.878 27.196 389.786 27.196C387.098 27.196 385.418 25.6 385.418 22.94V16.528H382.926V13.224H383.626C385.082 13.224 385.754 12.272 385.754 11.04V9.108H389.114ZM398.691 18.908V27H394.967V6.728H398.691V14.372C399.587 13.308 401.099 12.86 402.415 12.86C405.915 12.86 407.539 15.296 407.539 18.32V27H403.815V18.964C403.815 17.424 403.059 16.22 401.267 16.22C399.699 16.22 398.775 17.396 398.691 18.908Z" fill="#FF5722"/>
<path d="M427.174 10.486L419.009 27.207H416.249L424.391 10.486H427.174ZM446.717 13.706H441.565V27H438.368V13.706H433.216V10.693H446.717V13.706ZM453.959 15.638V18.72C453.614 18.651 453.315 18.628 453.039 18.628C451.475 18.628 450.118 19.387 450.118 21.825V27H447.059V15.684H450.026V17.363C450.716 15.868 452.28 15.592 453.246 15.592C453.499 15.592 453.729 15.615 453.959 15.638ZM455.488 23.918C455.488 21.894 456.983 20.767 458.869 20.491L461.652 20.077C462.296 19.985 462.503 19.663 462.503 19.272C462.503 18.467 461.882 17.8 460.594 17.8C459.26 17.8 458.524 18.651 458.432 19.64L455.718 19.065C455.902 17.294 457.535 15.339 460.571 15.339C464.159 15.339 465.493 17.363 465.493 19.64V25.206C465.493 25.804 465.562 26.609 465.631 27H462.825C462.756 26.701 462.71 26.08 462.71 25.643C462.135 26.54 461.054 27.322 459.375 27.322C456.96 27.322 455.488 25.689 455.488 23.918ZM460.019 25.045C461.307 25.045 462.503 24.424 462.503 22.423V21.917L459.95 22.308C459.168 22.423 458.547 22.86 458.547 23.734C458.547 24.401 459.03 25.045 460.019 25.045ZM479.046 15.684L474.653 27H471.594L466.971 15.684H470.329L473.135 23.274L475.826 15.684H479.046ZM482.802 20.054H487.862C487.816 18.927 487.08 17.823 485.332 17.823C483.745 17.823 482.871 19.019 482.802 20.054ZM488.161 22.998L490.714 23.757C490.139 25.712 488.345 27.345 485.562 27.345C482.457 27.345 479.72 25.114 479.72 21.296C479.72 17.685 482.388 15.339 485.286 15.339C488.782 15.339 490.875 17.57 490.875 21.204C490.875 21.641 490.829 22.101 490.829 22.147H482.733C482.802 23.642 484.067 24.723 485.585 24.723C487.011 24.723 487.793 24.01 488.161 22.998ZM496.342 27H493.283V10.348H496.342V27ZM515.742 27H505.53V10.693H515.742V13.683H508.704V17.409H515.075V20.238H508.704V24.01H515.742V27ZM521.611 20.491V27H518.552V15.684H521.519V17.087C522.209 15.914 523.566 15.385 524.785 15.385C527.591 15.385 528.879 17.386 528.879 19.87V27H525.82V20.399C525.82 19.134 525.199 18.145 523.727 18.145C522.393 18.145 521.611 19.18 521.611 20.491ZM535.756 12.303V15.684H538.033V18.398H535.756V23.136C535.756 24.125 536.216 24.447 537.09 24.447C537.458 24.447 537.872 24.401 538.033 24.355V26.885C537.757 27 537.205 27.161 536.308 27.161C534.1 27.161 532.72 25.85 532.72 23.665V18.398H530.673V15.684H531.248C532.444 15.684 532.996 14.902 532.996 13.89V12.303H535.756ZM543.129 20.353V27H540.07V10.348H543.129V16.627C543.865 15.753 545.107 15.385 546.188 15.385C549.063 15.385 550.397 17.386 550.397 19.87V27H547.338V20.399C547.338 19.134 546.717 18.145 545.245 18.145C543.957 18.145 543.198 19.111 543.129 20.353ZM560.817 27C560.771 26.77 560.725 26.241 560.725 25.781C560.104 26.839 558.793 27.299 557.597 27.299C554.86 27.299 553.296 25.298 553.296 22.837V15.684H556.355V22.216C556.355 23.481 556.999 24.493 558.425 24.493C559.782 24.493 560.564 23.573 560.564 22.262V15.684H563.623V24.953C563.623 25.827 563.692 26.609 563.738 27H560.817ZM565.922 23.849L568.544 23.274C568.613 24.171 569.28 24.999 570.614 24.999C571.626 24.999 572.109 24.47 572.109 23.872C572.109 23.366 571.764 22.952 570.89 22.768L569.395 22.423C567.21 21.94 566.221 20.629 566.221 19.042C566.221 17.018 568.015 15.339 570.453 15.339C573.673 15.339 574.754 17.386 574.892 18.605L572.339 19.18C572.247 18.513 571.764 17.662 570.476 17.662C569.671 17.662 569.027 18.145 569.027 18.789C569.027 19.341 569.441 19.686 570.062 19.801L571.672 20.146C573.903 20.606 575.03 21.963 575.03 23.619C575.03 25.459 573.604 27.345 570.637 27.345C567.233 27.345 566.06 25.137 565.922 23.849ZM580.548 27H577.489V15.684H580.548V27ZM577.121 11.981C577.121 10.923 577.972 10.072 579.007 10.072C580.065 10.072 580.893 10.923 580.893 11.981C580.893 12.993 580.065 13.844 579.007 13.844C577.972 13.844 577.121 12.993 577.121 11.981ZM583.133 23.918C583.133 21.894 584.628 20.767 586.514 20.491L589.297 20.077C589.941 19.985 590.148 19.663 590.148 19.272C590.148 18.467 589.527 17.8 588.239 17.8C586.905 17.8 586.169 18.651 586.077 19.64L583.363 19.065C583.547 17.294 585.18 15.339 588.216 15.339C591.804 15.339 593.138 17.363 593.138 19.64V25.206C593.138 25.804 593.207 26.609 593.276 27H590.47C590.401 26.701 590.355 26.08 590.355 25.643C589.78 26.54 588.699 27.322 587.02 27.322C584.605 27.322 583.133 25.689 583.133 23.918ZM587.664 25.045C588.952 25.045 590.148 24.424 590.148 22.423V21.917L587.595 22.308C586.813 22.423 586.192 22.86 586.192 23.734C586.192 24.401 586.675 25.045 587.664 25.045ZM595.256 23.849L597.878 23.274C597.947 24.171 598.614 24.999 599.948 24.999C600.96 24.999 601.443 24.47 601.443 23.872C601.443 23.366 601.098 22.952 600.224 22.768L598.729 22.423C596.544 21.94 595.555 20.629 595.555 19.042C595.555 17.018 597.349 15.339 599.787 15.339C603.007 15.339 604.088 17.386 604.226 18.605L601.673 19.18C601.581 18.513 601.098 17.662 599.81 17.662C599.005 17.662 598.361 18.145 598.361 18.789C598.361 19.341 598.775 19.686 599.396 19.801L601.006 20.146C603.237 20.606 604.364 21.963 604.364 23.619C604.364 25.459 602.938 27.345 599.971 27.345C596.567 27.345 595.394 25.137 595.256 23.849ZM610.595 12.303V15.684H612.872V18.398H610.595V23.136C610.595 24.125 611.055 24.447 611.929 24.447C612.297 24.447 612.711 24.401 612.872 24.355V26.885C612.596 27 612.044 27.161 611.147 27.161C608.939 27.161 607.559 25.85 607.559 23.665V18.398H605.512V15.684H606.087C607.283 15.684 607.835 14.902 607.835 13.89V12.303H610.595Z" fill="#191825" fill-opacity="0.75"/>
<path d="M347.891 85.092C347.546 85.4267 347.387 85.9107 347.466 86.3853L348.651 92.9453C348.751 93.5013 348.517 94.064 348.051 94.3853C347.595 94.7187 346.989 94.7587 346.491 94.492L340.586 91.412C340.381 91.3027 340.153 91.244 339.919 91.2373H339.558C339.433 91.256 339.31 91.296 339.198 91.3573L333.291 94.452C332.999 94.5987 332.669 94.6507 332.345 94.5987C331.555 94.4493 331.029 93.6973 331.158 92.904L332.345 86.344C332.423 85.8653 332.265 85.3787 331.919 85.0387L327.105 80.372C326.702 79.9813 326.562 79.3947 326.746 78.8654C326.925 78.3374 327.381 77.952 327.931 77.8654L334.558 76.904C335.062 76.852 335.505 76.5454 335.731 76.092L338.651 70.1054C338.721 69.972 338.81 69.8494 338.918 69.7454L339.038 69.652C339.101 69.5827 339.173 69.5254 339.253 69.4787L339.398 69.4254L339.625 69.332H340.186C340.687 69.384 341.129 69.684 341.359 70.132L344.318 76.092C344.531 76.528 344.946 76.8307 345.425 76.904L352.051 77.8654C352.611 77.9454 353.079 78.332 353.265 78.8654C353.439 79.4 353.289 79.9867 352.878 80.372L347.891 85.092Z" fill="#FACD49"/>
<path d="M395.891 85.092C395.546 85.4267 395.387 85.9107 395.466 86.3853L396.651 92.9453C396.751 93.5013 396.517 94.064 396.051 94.3853C395.595 94.7187 394.989 94.7587 394.491 94.492L388.586 91.412C388.381 91.3027 388.153 91.244 387.919 91.2373H387.558C387.433 91.256 387.31 91.296 387.198 91.3573L381.291 94.452C380.999 94.5987 380.669 94.6507 380.345 94.5987C379.555 94.4493 379.029 93.6973 379.158 92.904L380.345 86.344C380.423 85.8653 380.265 85.3787 379.919 85.0387L375.105 80.372C374.702 79.9813 374.562 79.3947 374.746 78.8654C374.925 78.3374 375.381 77.952 375.931 77.8654L382.558 76.904C383.062 76.852 383.505 76.5454 383.731 76.092L386.651 70.1054C386.721 69.972 386.81 69.8494 386.918 69.7454L387.038 69.652C387.101 69.5827 387.173 69.5254 387.253 69.4787L387.398 69.4254L387.625 69.332H388.186C388.687 69.384 389.129 69.684 389.359 70.132L392.318 76.092C392.531 76.528 392.946 76.8307 393.425 76.904L400.051 77.8654C400.611 77.9454 401.079 78.332 401.265 78.8654C401.439 79.4 401.289 79.9867 400.878 80.372L395.891 85.092Z" fill="#FACD49"/>
<path d="M443.891 85.092C443.546 85.4267 443.387 85.9107 443.466 86.3853L444.651 92.9453C444.751 93.5013 444.517 94.064 444.051 94.3853C443.595 94.7187 442.989 94.7587 442.491 94.492L436.586 91.412C436.381 91.3027 436.153 91.244 435.919 91.2373H435.558C435.433 91.256 435.31 91.296 435.198 91.3573L429.291 94.452C428.999 94.5987 428.669 94.6507 428.345 94.5987C427.555 94.4493 427.029 93.6973 427.158 92.904L428.345 86.344C428.423 85.8653 428.265 85.3787 427.919 85.0387L423.105 80.372C422.702 79.9813 422.562 79.3947 422.746 78.8654C422.925 78.3374 423.381 77.952 423.931 77.8654L430.558 76.904C431.062 76.852 431.505 76.5454 431.731 76.092L434.651 70.1054C434.721 69.972 434.81 69.8494 434.918 69.7454L435.038 69.652C435.101 69.5827 435.173 69.5254 435.253 69.4787L435.398 69.4254L435.625 69.332H436.186C436.687 69.384 437.129 69.684 437.359 70.132L440.318 76.092C440.531 76.528 440.946 76.8307 441.425 76.904L448.051 77.8654C448.611 77.9454 449.079 78.332 449.265 78.8654C449.439 79.4 449.289 79.9867 448.878 80.372L443.891 85.092Z" fill="#FACD49"/>
<path d="M491.891 85.092C491.546 85.4267 491.387 85.9107 491.466 86.3853L492.651 92.9453C492.751 93.5013 492.517 94.064 492.051 94.3853C491.595 94.7187 490.989 94.7587 490.491 94.492L484.586 91.412C484.381 91.3027 484.153 91.244 483.919 91.2373H483.558C483.433 91.256 483.31 91.296 483.198 91.3573L477.291 94.452C476.999 94.5987 476.669 94.6507 476.345 94.5987C475.555 94.4493 475.029 93.6973 475.158 92.904L476.345 86.344C476.423 85.8653 476.265 85.3787 475.919 85.0387L471.105 80.372C470.702 79.9813 470.562 79.3947 470.746 78.8654C470.925 78.3374 471.381 77.952 471.931 77.8654L478.558 76.904C479.062 76.852 479.505 76.5454 479.731 76.092L482.651 70.1054C482.721 69.972 482.81 69.8494 482.918 69.7454L483.038 69.652C483.101 69.5827 483.173 69.5254 483.253 69.4787L483.398 69.4254L483.625 69.332H484.186C484.687 69.384 485.129 69.684 485.359 70.132L488.318 76.092C488.531 76.528 488.946 76.8307 489.425 76.904L496.051 77.8654C496.611 77.9454 497.079 78.332 497.265 78.8654C497.439 79.4 497.289 79.9867 496.878 80.372L491.891 85.092Z" fill="#FACD49"/>
<path d="M539.891 85.092C539.546 85.4267 539.387 85.9107 539.466 86.3853L540.651 92.9453C540.751 93.5013 540.517 94.064 540.051 94.3853C539.595 94.7187 538.989 94.7587 538.491 94.492L532.586 91.412C532.381 91.3027 532.153 91.244 531.919 91.2373H531.558C531.433 91.256 531.31 91.296 531.198 91.3573L525.291 94.452C524.999 94.5987 524.669 94.6507 524.345 94.5987C523.555 94.4493 523.029 93.6973 523.158 92.904L524.345 86.344C524.423 85.8653 524.265 85.3787 523.919 85.0387L519.105 80.372C518.702 79.9813 518.562 79.3947 518.746 78.8654C518.925 78.3374 519.381 77.952 519.931 77.8654L526.558 76.904C527.062 76.852 527.505 76.5454 527.731 76.092L530.651 70.1054C530.721 69.972 530.81 69.8494 530.918 69.7454L531.038 69.652C531.101 69.5827 531.173 69.5254 531.253 69.4787L531.398 69.4254L531.625 69.332H532.186C532.687 69.384 533.129 69.684 533.359 70.132L536.318 76.092C536.531 76.528 536.946 76.8307 537.425 76.904L544.051 77.8654C544.611 77.9454 545.079 78.332 545.265 78.8654C545.439 79.4 545.289 79.9867 544.878 80.372L539.891 85.092Z" fill="#FACD49"/>
</svg>
