<svg width="278" height="271" viewBox="0 0 278 271" fill="none" xmlns="http://www.w3.org/2000/svg">
<rect y="9" width="100" height="100" rx="50" fill="white"/>
<rect x="0.5" y="9.5" width="99" height="99" rx="49.5" stroke="#191825" stroke-opacity="0.1"/>
<path d="M44.4143 58.0005H58.0001C58.5524 58.0005 59.0001 58.4482 59.0001 59.0005C59.0001 59.5528 58.5524 60.0005 58.0001 60.0005H44.4143L47.6569 63.2432C48.0475 63.6337 48.0475 64.2669 47.6569 64.6574C47.2664 65.0479 46.6333 65.0479 46.2427 64.6574L42.0001 60.4147C41.219 59.6337 41.219 58.3674 42.0001 57.5863L46.2427 53.3437C46.6333 52.9532 47.2664 52.9532 47.6569 53.3437C48.0475 53.7342 48.0475 54.3674 47.6569 54.7579L44.4143 58.0005Z" fill="#191825"/>
<g filter="url(#filter0_ddddd_1156_921)">
<rect width="100" height="100" rx="50" transform="matrix(-1 0 0 1 232 9)" fill="#5D50C6"/>
<path d="M187.586 58.0005H174C173.448 58.0005 173 58.4482 173 59.0005C173 59.5528 173.448 60.0005 174 60.0005H187.586L184.343 63.2432C183.953 63.6337 183.953 64.2669 184.343 64.6574C184.734 65.0479 185.367 65.0479 185.757 64.6574L190 60.4147C190.781 59.6337 190.781 58.3674 190 57.5863L185.757 53.3437C185.367 52.9532 184.734 52.9532 184.343 53.3437C183.953 53.7342 183.953 54.3674 184.343 54.7579L187.586 58.0005Z" fill="white"/>
</g>
<defs>
<filter id="filter0_ddddd_1156_921" x="86" y="0" width="192" height="271" filterUnits="userSpaceOnUse" color-interpolation-filters="sRGB">
<feFlood flood-opacity="0" result="BackgroundImageFix"/>
<feColorMatrix in="SourceAlpha" type="matrix" values="0 0 0 0 0 0 0 0 0 0 0 0 0 0 0 0 0 0 127 0" result="hardAlpha"/>
<feOffset/>
<feColorMatrix type="matrix" values="0 0 0 0 0 0 0 0 0 0 0 0 0 0 0 0 0 0 0.08 0"/>
<feBlend mode="normal" in2="BackgroundImageFix" result="effect1_dropShadow_1156_921"/>
<feColorMatrix in="SourceAlpha" type="matrix" values="0 0 0 0 0 0 0 0 0 0 0 0 0 0 0 0 0 0 127 0" result="hardAlpha"/>
<feOffset dy="7"/>
<feGaussianBlur stdDeviation="8"/>
<feColorMatrix type="matrix" values="0 0 0 0 0 0 0 0 0 0 0 0 0 0 0 0 0 0 0.07 0"/>
<feBlend mode="normal" in2="effect1_dropShadow_1156_921" result="effect2_dropShadow_1156_921"/>
<feColorMatrix in="SourceAlpha" type="matrix" values="0 0 0 0 0 0 0 0 0 0 0 0 0 0 0 0 0 0 127 0" result="hardAlpha"/>
<feOffset dy="29"/>
<feGaussianBlur stdDeviation="14.5"/>
<feColorMatrix type="matrix" values="0 0 0 0 0 0 0 0 0 0 0 0 0 0 0 0 0 0 0.06 0"/>
<feBlend mode="normal" in2="effect2_dropShadow_1156_921" result="effect3_dropShadow_1156_921"/>
<feColorMatrix in="SourceAlpha" type="matrix" values="0 0 0 0 0 0 0 0 0 0 0 0 0 0 0 0 0 0 127 0" result="hardAlpha"/>
<feOffset dy="65"/>
<feGaussianBlur stdDeviation="19.5"/>
<feColorMatrix type="matrix" values="0 0 0 0 0 0 0 0 0 0 0 0 0 0 0 0 0 0 0.04 0"/>
<feBlend mode="normal" in2="effect3_dropShadow_1156_921" result="effect4_dropShadow_1156_921"/>
<feColorMatrix in="SourceAlpha" type="matrix" values="0 0 0 0 0 0 0 0 0 0 0 0 0 0 0 0 0 0 127 0" result="hardAlpha"/>
<feOffset dy="116"/>
<feGaussianBlur stdDeviation="23"/>
<feColorMatrix type="matrix" values="0 0 0 0 0 0 0 0 0 0 0 0 0 0 0 0 0 0 0.01 0"/>
<feBlend mode="normal" in2="effect4_dropShadow_1156_921" result="effect5_dropShadow_1156_921"/>
<feBlend mode="normal" in="SourceGraphic" in2="effect5_dropShadow_1156_921" result="shape"/>
</filter>
</defs>
</svg>
