<svg width="192" height="272" viewBox="0 0 192 272" fill="none" xmlns="http://www.w3.org/2000/svg">
<g filter="url(#filter0_ddddd_1156_1060)">
<rect width="100" height="100" rx="50" transform="matrix(-1 0 0 1 146 9.5)" fill="#5D50C6"/>
<path d="M101.586 58.5005H87.9999C87.4476 58.5005 86.9999 58.9482 86.9999 59.5005C86.9999 60.0528 87.4476 60.5005 87.9999 60.5005H101.586L98.3431 63.7432C97.9525 64.1337 97.9525 64.7669 98.3431 65.1574C98.7336 65.5479 99.3667 65.5479 99.7573 65.1574L104 60.9147C104.781 60.1337 104.781 58.8674 104 58.0863L99.7573 53.8437C99.3667 53.4532 98.7336 53.4532 98.3431 53.8437C97.9525 54.2342 97.9525 54.8674 98.3431 55.2579L101.586 58.5005Z" fill="white"/>
</g>
<defs>
<filter id="filter0_ddddd_1156_1060" x="0" y="0.5" width="192" height="271" filterUnits="userSpaceOnUse" color-interpolation-filters="sRGB">
<feFlood flood-opacity="0" result="BackgroundImageFix"/>
<feColorMatrix in="SourceAlpha" type="matrix" values="0 0 0 0 0 0 0 0 0 0 0 0 0 0 0 0 0 0 127 0" result="hardAlpha"/>
<feOffset/>
<feColorMatrix type="matrix" values="0 0 0 0 0 0 0 0 0 0 0 0 0 0 0 0 0 0 0.08 0"/>
<feBlend mode="normal" in2="BackgroundImageFix" result="effect1_dropShadow_1156_1060"/>
<feColorMatrix in="SourceAlpha" type="matrix" values="0 0 0 0 0 0 0 0 0 0 0 0 0 0 0 0 0 0 127 0" result="hardAlpha"/>
<feOffset dy="7"/>
<feGaussianBlur stdDeviation="8"/>
<feColorMatrix type="matrix" values="0 0 0 0 0 0 0 0 0 0 0 0 0 0 0 0 0 0 0.07 0"/>
<feBlend mode="normal" in2="effect1_dropShadow_1156_1060" result="effect2_dropShadow_1156_1060"/>
<feColorMatrix in="SourceAlpha" type="matrix" values="0 0 0 0 0 0 0 0 0 0 0 0 0 0 0 0 0 0 127 0" result="hardAlpha"/>
<feOffset dy="29"/>
<feGaussianBlur stdDeviation="14.5"/>
<feColorMatrix type="matrix" values="0 0 0 0 0 0 0 0 0 0 0 0 0 0 0 0 0 0 0.06 0"/>
<feBlend mode="normal" in2="effect2_dropShadow_1156_1060" result="effect3_dropShadow_1156_1060"/>
<feColorMatrix in="SourceAlpha" type="matrix" values="0 0 0 0 0 0 0 0 0 0 0 0 0 0 0 0 0 0 127 0" result="hardAlpha"/>
<feOffset dy="65"/>
<feGaussianBlur stdDeviation="19.5"/>
<feColorMatrix type="matrix" values="0 0 0 0 0 0 0 0 0 0 0 0 0 0 0 0 0 0 0.04 0"/>
<feBlend mode="normal" in2="effect3_dropShadow_1156_1060" result="effect4_dropShadow_1156_1060"/>
<feColorMatrix in="SourceAlpha" type="matrix" values="0 0 0 0 0 0 0 0 0 0 0 0 0 0 0 0 0 0 127 0" result="hardAlpha"/>
<feOffset dy="116"/>
<feGaussianBlur stdDeviation="23"/>
<feColorMatrix type="matrix" values="0 0 0 0 0 0 0 0 0 0 0 0 0 0 0 0 0 0 0.01 0"/>
<feBlend mode="normal" in2="effect4_dropShadow_1156_1060" result="effect5_dropShadow_1156_1060"/>
<feBlend mode="normal" in="SourceGraphic" in2="effect5_dropShadow_1156_1060" result="shape"/>
</filter>
</defs>
</svg>
