<svg width="100" height="101" viewBox="0 0 100 101" fill="none" xmlns="http://www.w3.org/2000/svg">
<rect y="0.5" width="100" height="100" rx="50" fill="white"/>
<rect x="0.5" y="1" width="99" height="99" rx="49.5" stroke="#191825" stroke-opacity="0.1"/>
<path d="M44.4142 49.5005H58C58.5523 49.5005 59 49.9482 59 50.5005C59 51.0528 58.5523 51.5005 58 51.5005H44.4142L47.6568 54.7432C48.0473 55.1337 48.0473 55.7669 47.6568 56.1574C47.2663 56.5479 46.6331 56.5479 46.2426 56.1574L42 51.9147C41.2189 51.1337 41.2189 49.8674 42 49.0863L46.2426 44.8437C46.6331 44.4532 47.2663 44.4532 47.6568 44.8437C48.0473 45.2342 48.0473 45.8674 47.6568 46.2579L44.4142 49.5005Z" fill="#191825"/>
</svg>
